HIERARCHY
ROOT hip
{
	OFFSET 0.000000 0.000000 0.000000 
	CHANNELS 6 Xposition Yposition Zposition Xrotation Zrotation Yrotation
	JOINT abdomen
	{
		OFFSET 0.000000 3.402643 0.000000 
		CHANNELS 3 Xrotation Zrotation Yrotation
		JOINT chest
		{
			OFFSET 0.000000 8.438565 -0.680529 
			CHANNELS 3 Xrotation Zrotation Yrotation
			JOINT neck
			{
				OFFSET 0.000000 10.207942 -0.272212 
				CHANNELS 3 Xrotation Zrotation Yrotation
				JOINT head
				{
					OFFSET 0.000000 3.130431 0.000000 
					CHANNELS 3 Xrotation Zrotation Yrotation
					End Site
					{
						OFFSET 0.000000 3.130435 0.000000 
					}
				}
			}
			JOINT lCollar
			{
				OFFSET 3.470700 6.669187 -0.816635 
				CHANNELS 3 Yrotation Zrotation Xrotation
				JOINT lShldr
				{
					OFFSET 3.198488 0.000000 0.000000 
					CHANNELS 3 Zrotation Yrotation Xrotation
					JOINT lForeArm
					{
						OFFSET 10.139888 0.000000 0.000000 
						CHANNELS 3 Yrotation Zrotation Xrotation
						JOINT lHand
						{
							OFFSET 8.370511 0.000000 0.000000 
							CHANNELS 3 Zrotation Yrotation Xrotation
							End Site
							{
								OFFSET 4.083176 0.000000 0.000000 
							}
						}
					}
				}
			}
			JOINT rCollar
			{
				OFFSET -3.470700 6.669187 -0.816635 
				CHANNELS 3 Yrotation Zrotation Xrotation
				JOINT rShldr
				{
					OFFSET -3.198488 0.000000 0.000000 
					CHANNELS 3 Zrotation Yrotation Xrotation
					JOINT rForeArm
					{
						OFFSET -10.139888 0.000000 0.000000 
						CHANNELS 3 Yrotation Zrotation Xrotation
						JOINT rHand
						{
							OFFSET -8.370511 0.000000 0.000000 
							CHANNELS 3 Zrotation Yrotation Xrotation
							End Site
							{
								OFFSET -4.083176 0.000000 0.000000 
							}
						}
					}
				}
			}
		}
	}
	JOINT lThigh
	{
		OFFSET 5.308129 -1.633274 1.361059 
		CHANNELS 3 Xrotation Zrotation Yrotation
		JOINT lShin
		{
			OFFSET -2.041588 -20.007561 0.000000 
			CHANNELS 3 Xrotation Zrotation Yrotation
			JOINT lFoot
			{
				OFFSET 0.000000 -19.190928 -1.224953 
				CHANNELS 3 Xrotation Yrotation Zrotation
				End Site
				{
					OFFSET 0.000000 -2.449906 4.627600 
				}
			}
		}
	}
	JOINT rThigh
	{
		OFFSET -5.308129 -1.633274 1.361059 
		CHANNELS 3 Xrotation Zrotation Yrotation
		JOINT rShin
		{
			OFFSET 2.041588 -20.007561 0.000000 
			CHANNELS 3 Xrotation Zrotation Yrotation
			JOINT rFoot
			{
				OFFSET 0.000000 -19.190928 -1.224953 
				CHANNELS 3 Xrotation Yrotation Zrotation
				End Site
				{
					OFFSET 0.000000 -2.449906 4.627600 
				}
			}
		}
	}
}
MOTION
Frames: 9
Frame Time: 0.033333
-15.638059 49.875164 74.587196 12.861328 4.277344 -17.469975 47.671669 -12.931194 -16.866676 -23.642578 4.912109 -0.126953 51.063168 8.107644 2.471410 -89.599609 2.138672 4.716797 2.000000 -2.000000 0.000000 -73.906250 40.195313 -25.126953 -122.941139 1.301465 -2.898311 -0.027344 49.206829 8.058552 -2.000000 2.000000 0.000000 74.863281 -52.998047 -5.107422 116.599800 -1.045322 -3.098394 -30.473948 -61.631138 47.795925 -36.025631 33.408482 12.769014 47.652290 -3.634736 -3.783079 28.892971 -5.279760 -12.326286 -34.255238 -8.651018 -20.245045 16.486591 4.948899 1.420709 6.275731 -9.220546 2.838359 
-16.046541 49.930302 74.822914 12.343750 5.136719 -17.499126 48.708271 -13.315913 -16.077950 -23.818359 4.912109 -0.311664 51.063168 8.107644 2.471410 -91.152344 2.529297 5.126954 2.000000 -2.000000 0.000000 -74.736328 39.394531 -25.511377 -122.589302 1.302029 -2.888565 -1.317303 50.595867 8.455853 -2.000000 2.000000 0.000000 74.013672 -51.230469 -4.169921 116.599510 -1.055635 -3.089213 -35.783443 -60.434902 51.603806 -40.448837 34.745583 12.964748 50.832798 -3.587640 -3.870772 17.962658 -6.938253 -17.474640 -35.585148 -9.608974 -19.910122 20.368534 4.813672 1.875603 5.188424 -9.195035 3.254545 
-16.363258 50.024841 75.254433 12.011720 5.839844 -17.557598 49.226364 -13.522397 -15.688926 -23.818359 4.736328 -0.165209 51.063168 8.107644 2.471410 -92.021484 2.841797 5.371094 2.000000 -2.000000 0.000000 -74.921875 38.876957 -25.374729 -122.237778 1.272782 -2.886869 -3.639431 52.196537 8.080994 -2.000000 2.000000 0.000000 73.613289 -49.628906 -2.898064 116.599495 -1.065384 -3.089777 -39.574013 -59.200191 53.895821 -43.727306 33.941727 11.815372 48.348782 -3.594424 -3.851915 12.868280 -7.021651 -18.864433 -36.265530 -10.358877 -18.742983 23.537571 4.783663 1.480050 4.693600 -8.826911 3.951429 
-16.535332 49.875164 75.879059 11.855470 6.533203 -17.957874 49.949303 -13.898279 -15.294882 -23.808596 4.560547 -0.175781 51.063168 8.107644 2.471410 -93.056641 3.046875 4.853517 2.000000 -2.000000 0.000000 -74.423828 38.369141 -25.023233 -122.067421 1.281822 -2.731160 -4.744866 53.374817 8.138092 -2.000000 2.000000 0.000000 73.310547 -48.476563 -1.953125 116.599228 -1.065948 -3.080032 -41.793228 -58.389874 55.111500 -46.712147 32.210514 10.029621 43.088722 -3.908723 -3.488575 8.621866 -6.286561 -18.519352 -36.842728 -11.257799 -18.990294 26.534554 4.559026 2.380005 1.755150 -8.270654 3.341439 
-16.467522 49.693954 76.595108 12.031250 6.875000 -18.573050 50.499027 -14.203158 -15.038506 -23.642578 4.375000 -0.009766 51.063168 8.107644 2.471410 -93.779297 3.085937 4.121619 2.000000 -2.000000 0.000000 -73.750000 37.832031 -24.603386 -122.067421 1.281822 -2.731160 -3.575241 53.573215 8.702403 -2.000000 2.000000 0.000000 74.091797 -47.617188 -2.578125 116.599228 -1.065948 -3.080032 -39.052170 -58.758213 52.888844 -48.380604 30.110390 8.592490 36.564281 -4.161695 -3.158426 5.984098 -4.822331 -17.720558 -37.322571 -11.776324 -18.766827 28.643517 4.461541 2.364190 -0.510753 -7.789437 2.895483 
-16.292789 49.497005 77.388832 12.548829 6.855469 -19.735161 51.039810 -14.517238 -14.783479 -23.652344 4.199219 0.322266 51.063168 8.107644 2.471410 -94.472656 3.125000 3.193360 2.000000 -2.000000 0.000000 -73.496094 37.753910 -25.013548 -122.417908 1.293001 -3.044492 -1.255620 53.144558 9.848738 -2.000000 2.000000 0.000000 75.097656 -47.548828 -3.093143 116.950775 -1.085447 -3.081159 -33.148003 -59.567112 48.235031 -49.207287 28.582790 7.985318 30.588926 -4.488389 -2.733212 3.778502 -4.293040 -16.264492 -38.010590 -11.938416 -18.832193 30.581270 4.374225 2.499621 -2.414907 -6.512823 2.509244 
-16.065866 49.331573 78.236000 13.623047 6.650391 -21.053556 51.426754 -14.750958 -14.662382 -23.652344 4.033203 0.478516 51.063168 8.107644 2.471410 -95.175781 3.183594 2.626953 2.000000 -2.000000 0.000000 -72.812500 37.412109 -24.726564 -122.418694 1.292136 -2.721981 0.440743 52.809971 10.108068 -2.000000 2.000000 0.000000 76.318359 -47.275391 -4.343110 117.126846 -1.075134 -3.090341 -29.736532 -59.973331 45.729233 -47.464901 28.032290 9.294116 23.327337 -4.863870 -2.216111 3.850713 -3.268866 -14.333867 -38.921524 -11.774556 -18.948797 31.998774 4.315881 2.599151 -3.999191 -5.542609 2.458082 
-15.747413 49.244915 79.084557 14.833984 6.259766 -22.431643 51.801430 -14.974720 -14.566395 -23.476564 4.033203 0.683594 51.063168 8.107644 2.471410 -95.527344 3.203125 2.783203 2.000000 -2.000000 0.000000 -72.578125 37.841797 -25.111197 -122.413818 1.281966 -2.897180 1.285506 52.839199 10.522103 -2.000000 2.000000 0.000000 76.494141 -46.953125 -4.352839 117.126846 -1.075134 -3.090341 -29.552122 -60.094765 45.001335 -43.837494 27.978189 11.446190 16.114079 -5.008464 -1.631039 4.996550 -2.539796 -12.403778 -39.885509 -11.294315 -18.857891 33.050419 4.247197 2.685184 -4.311865 -4.116733 2.656760 
-15.472697 49.189762 79.968056 16.083986 5.908203 -23.602509 52.053776 -15.262124 -14.722603 -23.476564 4.199219 0.703125 51.063168 8.107644 2.471410 -95.703125 3.085937 3.418495 2.000000 -2.000000 0.000000 -72.587891 38.232426 -25.833801 -122.241081 1.441768 -2.672016 0.602374 52.673176 9.695841 -2.000000 2.000000 0.000000 76.171875 -46.708984 -4.169922 117.302597 -1.094632 -3.091469 -31.534266 -59.727886 46.442947 -42.166862 28.250828 12.660475 13.327083 -5.107536 -1.556078 4.009291 -1.722753 -10.905175 -40.524250 -10.555093 -18.838106 33.931999 4.198626 2.742499 -4.989420 -3.295177 2.874678 
